<svg width="878" height="785" viewBox="0 0 878 785" fill="none" xmlns="http://www.w3.org/2000/svg">
<path fill-rule="evenodd" clip-rule="evenodd" d="M50.7325 0.625L25.5339 29.2241L0.0390625 57.5596L50.7325 0.625ZM51.1463 0.992561C51.051 0.907434 50.9704 0.835659 50.9047 0.777322L50.8021 0.686452L50.7632 0.652042C50.7472 0.637914 50.7325 0.625 25.5339 29.2241C0.0390644 57.5596 0.0535064 57.5726 0.0692971 57.5868L0.107705 57.6212L0.208977 57.7118C0.274788 57.7706 0.355883 57.8428 0.452153 57.9283C0.55803 58.0233 0.71568 58.1654 0.923143 58.3539C1.44589 58.8289 2.28426 59.5983 3.40691 60.6525C5.6531 62.7617 9.03166 66.0058 13.293 70.3087C21.8254 78.9243 33.839 91.7263 47.3596 108.105C74.5396 141.032 107.084 187.541 130.034 242.816C152.929 297.956 165.837 360.703 155.542 427.24C145.309 493.375 111.657 566.554 35.9499 642.261L89.8551 696.166C175.507 610.514 217.863 523.015 230.879 438.897C243.832 355.181 227.228 278.1 200.44 213.583C193.458 196.765 185.753 180.726 177.641 165.552C194.275 172.442 211.826 178.887 230.174 184.58C368.345 227.446 551.533 226.9 722.291 56.1417L668.386 2.23653C521.897 148.726 370.182 148.198 252.763 111.77C193.186 93.2866 142.427 65.3942 106.396 41.9021C88.4513 30.2024 74.3482 19.7178 64.8388 12.2528C60.0887 8.52386 56.4986 5.55917 54.1626 3.58658C52.995 2.60063 52.142 1.86363 51.6154 1.40417C51.4081 1.22329 51.2515 1.08551 51.1463 0.992561ZM0.29396 57.7869L0.298471 57.7909C0.291613 57.7848 0.290131 57.7835 0.29396 57.7869Z" fill="white"/>
<path fill-rule="evenodd" clip-rule="evenodd" d="M147.333 90.9344L877.024 726.586L826.951 784.068L97.2594 148.416L147.333 90.9344Z" fill="white"/>
</svg>
